<svg xmlns="http://www.w3.org/2000/svg" viewBox="0 0 776.74 95.54"><defs><style>.cls-1{fill:#45d0c1;}.cls-2{fill:#0075a8;}.cls-3{fill:#43d41f;}</style></defs><title>Logo_horizontal</title><g id="Camada_2" data-name="Camada 2"><g id="Layer_1" data-name="Layer 1"><path class="cls-1" d="M91.4,91.48V21.26a1.39,1.39,0,0,1,1.39-1.39h14.66a1.39,1.39,0,0,1,1.39,1.39v8.51s5.75-13,22.84-10.89h0a1.67,1.67,0,0,1,1.47,1.66V34.72a1.65,1.65,0,0,1-1.55,1.65c-4.74.26-7.33,1.35-11.44,3.27a19.49,19.49,0,0,0-9.78,9.57V91.45a2.65,2.65,0,0,1-2.65,2.65l-13.68,0A2.66,2.66,0,0,1,91.4,91.48Z"/><path class="cls-1" d="M296.41,91.48v-70A1.58,1.58,0,0,1,298,19.87h14.27a1.58,1.58,0,0,1,1.58,1.58v8.32s5.76-13,22.85-10.89h0a1.67,1.67,0,0,1,1.47,1.66V34.72a1.65,1.65,0,0,1-1.55,1.65c-4.73.26-7.33,1.35-11.44,3.27a19.57,19.57,0,0,0-9.78,9.57V91.45a2.65,2.65,0,0,1-2.65,2.65l-13.68,0A2.66,2.66,0,0,1,296.41,91.48Z"/><path class="cls-1" d="M251.07,17.16a39.19,39.19,0,1,0,39.19,39.19A39.2,39.2,0,0,0,251.07,17.16Zm0,60a20.79,20.79,0,1,1,20.79-20.79A20.79,20.79,0,0,1,251.07,77.14Z"/><path class="cls-1" d="M378.5,35.56a20.75,20.75,0,0,1,16.78,8.55L357.79,58.05c0-.56-.08-1.12-.08-1.7A20.79,20.79,0,0,1,378.5,35.56Zm21.37,27a2.16,2.16,0,0,0-2,1.39,20.79,20.79,0,0,1-35.49,5.56l36.88-13.72,15.25-6a3,3,0,0,0,1.82-3.63A39.19,39.19,0,1,0,417,63.94a1.2,1.2,0,0,0-1.17-1.42Z"/><path class="cls-1" d="M207.13,20.41a25.32,25.32,0,0,0-16.9,13.5,31.83,31.83,0,0,0-1.84,4.38l-11.63,34L165.17,38.4a32.57,32.57,0,0,0-1.61-3.93A25.3,25.3,0,0,0,145.34,20.3a21.23,21.23,0,0,0-6.85-.17L165.21,92a3.26,3.26,0,0,0,3,2.12h15.86a3.1,3.1,0,0,0,.81-.11h.37a3.24,3.24,0,0,0,3-2.13L215.07,20A21.71,21.71,0,0,0,207.13,20.41Z"/><path class="cls-1" d="M54.5,6.08l-.92-2.4C52.72,1.07,51.21,0,47.68,0H39c-3.38,0-5.31,1.45-6.35,4.39L29,14.14A37.81,37.81,0,0,1,52.58,6C53.29,6,53.93,6.05,54.5,6.08Z"/><path class="cls-1" d="M56.16,12a23.71,23.71,0,0,0-3.58-.23c-6.57,0-20.58,2-28.73,17.87-.24.46-.47.94-.7,1.42-.09.21-.19.4-.28.61-.31.68-.61,1.38-.89,2.11L.15,90.66a2.25,2.25,0,0,0,2.09,3H18.82a2.24,2.24,0,0,0,2.1-1.47L29,70.16H56.74L65,92.25a2.23,2.23,0,0,0,2.1,1.46H83.94a2.24,2.24,0,0,0,2.09-3ZM32.09,57.25l11.06-30,10.26,30Z"/><path class="cls-2" d="M511.08,72.59V72A11.58,11.58,0,0,1,507,76.51a12.49,12.49,0,0,1-7.17,2,16.93,16.93,0,0,1-7.17-1.5,15,15,0,0,1-5.35-4.08,18.62,18.62,0,0,1-3.48-6.11,22.29,22.29,0,0,1-1.2-7.54,21.63,21.63,0,0,1,1.28-7.32,19.1,19.1,0,0,1,3.47-6,17.53,17.53,0,0,1,5.43-4.15,16.51,16.51,0,0,1,7-1.51,15.17,15.17,0,0,1,4.3.53,15.5,15.5,0,0,1,3.17,1.36,11.63,11.63,0,0,1,2.26,2,8.93,8.93,0,0,1,1.36,2.26V22.87h7V70.78c0,1.73.07,3.24.15,4.45a17.77,17.77,0,0,0,.22,2.26h-6.86c-.08-.37-.15-1-.23-2S511.08,73.72,511.08,72.59Zm-21.2-13.35a16.19,16.19,0,0,0,.75,5.13,12.2,12.2,0,0,0,2,4.15A10.62,10.62,0,0,0,496,71.23a9.52,9.52,0,0,0,4.53,1,9.34,9.34,0,0,0,4.37-1,10.43,10.43,0,0,0,3.32-2.72,13.3,13.3,0,0,0,2.12-4.15,19,19,0,0,0,.68-5.2A14.42,14.42,0,0,0,508.29,50a9.33,9.33,0,0,0-7.7-3.47,10.35,10.35,0,0,0-4.37.9,9.9,9.9,0,0,0-3.4,2.64,11.74,11.74,0,0,0-2.19,4.08A16.1,16.1,0,0,0,489.88,59.24Z"/><path class="cls-2" d="M553.41,73.12a8.72,8.72,0,0,1-4.53,4.15,15.06,15.06,0,0,1-6.18,1.36A13.43,13.43,0,0,1,537,77.49a12,12,0,0,1-4.3-3.09,13.84,13.84,0,0,1-2.64-4.6,15.81,15.81,0,0,1-1-5.74V41.2h7.09V63a13.46,13.46,0,0,0,.45,3.54,7.9,7.9,0,0,0,1.43,3,7.7,7.7,0,0,0,2.57,2,8,8,0,0,0,3.77.75c2.87,0,5.06-.83,6.49-2.56A10.11,10.11,0,0,0,553,63.08V41.2h7.09V70.78c0,1.43.08,2.79.16,3.92s.15,2.11.22,2.79h-6.79c-.07-.37-.15-1-.22-2S553.41,73.87,553.41,73.12Z"/><path class="cls-2" d="M587.51,46.64a11,11,0,0,0-4.15.75,10,10,0,0,0-3.47,2.42,11,11,0,0,0-2.49,3.92,15.81,15.81,0,0,0-.9,5.58,15.23,15.23,0,0,0,.9,5.43,12.31,12.31,0,0,0,2.42,4,9,9,0,0,0,3.54,2.49,11.71,11.71,0,0,0,4.23.83,10.82,10.82,0,0,0,4.38-.75,11.51,11.51,0,0,0,2.94-1.89,9.44,9.44,0,0,0,1.81-2.49,14.76,14.76,0,0,0,1-2.34L604,67.31a18.89,18.89,0,0,1-2,3.92,15.12,15.12,0,0,1-3.32,3.7,16.19,16.19,0,0,1-4.75,2.64,18.6,18.6,0,0,1-6.34,1.06,17.91,17.91,0,0,1-7.32-1.51A16.87,16.87,0,0,1,574.46,73a20.44,20.44,0,0,1-5.2-13.73,20.09,20.09,0,0,1,1.43-7.77,18.29,18.29,0,0,1,3.85-6.11,18.23,18.23,0,0,1,13-5.36,18.79,18.79,0,0,1,6.42,1,16.37,16.37,0,0,1,4.75,2.72,16.19,16.19,0,0,1,3.17,3.7,17.81,17.81,0,0,1,1.81,4.15l-6.41,2.71a13.81,13.81,0,0,0-1.06-2.71,9.44,9.44,0,0,0-1.81-2.49,13,13,0,0,0-2.87-1.81A10.39,10.39,0,0,0,587.51,46.64Z"/><path class="cls-2" d="M638.44,72.59V72a11.51,11.51,0,0,1-4.07,4.52,12.49,12.49,0,0,1-7.17,2A17,17,0,0,1,620,77a15.33,15.33,0,0,1-5.35-4.15,19.09,19.09,0,0,1-3.47-6.19A22.29,22.29,0,0,1,610,59.09a21.63,21.63,0,0,1,1.28-7.32,18.61,18.61,0,0,1,3.47-6,16.07,16.07,0,0,1,5.43-4.08,16.55,16.55,0,0,1,7-1.51,13.81,13.81,0,0,1,7.47,1.89,11.35,11.35,0,0,1,2.26,2,8.93,8.93,0,0,1,1.36,2.26V41.2h7V70.78c0,1.58.07,3,.15,4.3a18.69,18.69,0,0,0,.23,2.41h-6.87c-.08-.37-.15-1-.23-2S638.44,73.72,638.44,72.59Zm-21.2-13.5a16.3,16.3,0,0,0,.76,5.2,11.83,11.83,0,0,0,2,4.15,10.65,10.65,0,0,0,3.32,2.72,9.56,9.56,0,0,0,4.53,1,9.41,9.41,0,0,0,4.38-1,10.65,10.65,0,0,0,3.32-2.72,13.5,13.5,0,0,0,2.11-4.15,19,19,0,0,0,.68-5.2A14.42,14.42,0,0,0,635.65,50,9.31,9.31,0,0,0,628,46.49,9.49,9.49,0,0,0,620.18,50,13.66,13.66,0,0,0,617.24,59.09Z"/><path class="cls-2" d="M670.44,78.47A18.05,18.05,0,0,1,659,72.21a17.47,17.47,0,0,1-3.32-5.81,20,20,0,0,1-1.21-7.09,19.65,19.65,0,0,1,1.43-7.69,18.44,18.44,0,0,1,3.85-6.12,16.78,16.78,0,0,1,5.81-4,17.4,17.4,0,0,1,7.17-1.44,18.73,18.73,0,0,1,6.41,1,16.24,16.24,0,0,1,4.75,2.72,16,16,0,0,1,3.17,3.7,17.4,17.4,0,0,1,1.81,4.15l-6.41,2.71a13.76,13.76,0,0,0-1-2.71,9.48,9.48,0,0,0-1.82-2.49,13,13,0,0,0-2.86-1.81,10.43,10.43,0,0,0-4-.68,11,11,0,0,0-4.15.83,9.79,9.79,0,0,0-3.47,2.41,10.89,10.89,0,0,0-2.49,3.92,15.72,15.72,0,0,0-.91,5.51,15.22,15.22,0,0,0,.91,5.43,12.12,12.12,0,0,0,2.41,4,9,9,0,0,0,3.55,2.49,11.66,11.66,0,0,0,4.22.83,10.64,10.64,0,0,0,4.3-.75A11.4,11.4,0,0,0,680,69.42a11.64,11.64,0,0,0,1.88-2.49,13.1,13.1,0,0,0,1-2.34l6.27,2.72a21.08,21.08,0,0,1-1.66,3.54,16.32,16.32,0,0,1-2.72,3.32,19.52,19.52,0,0,1-3.85,2.64,17.51,17.51,0,0,1-5.13,1.59A23.52,23.52,0,0,1,670.44,78.47Z"/><path class="cls-2" d="M723.63,72.59V72a11.54,11.54,0,0,1-4.08,4.52,12.46,12.46,0,0,1-7.16,2,16.9,16.9,0,0,1-7.17-1.5,15.36,15.36,0,0,1-5.36-4.15,19.09,19.09,0,0,1-3.47-6.19,22.29,22.29,0,0,1-1.21-7.54,21.64,21.64,0,0,1,1.29-7.32,18.61,18.61,0,0,1,3.47-6,16.07,16.07,0,0,1,5.43-4.08,16.48,16.48,0,0,1,7-1.51,15.22,15.22,0,0,1,4.3.53,15.4,15.4,0,0,1,3.16,1.36,11.71,11.71,0,0,1,2.27,2,9.56,9.56,0,0,1,1.36,2.26V41.2h7V70.78c0,1.58.08,3,.15,4.3a20.84,20.84,0,0,0,.23,2.41H724c-.07-.37-.15-1-.22-2S723.63,73.72,723.63,72.59Zm-21.2-13.5a16.31,16.31,0,0,0,.75,5.2,11.68,11.68,0,0,0,2,4.15,10.43,10.43,0,0,0,3.32,2.72,9.52,9.52,0,0,0,4.52,1,9.35,9.35,0,0,0,4.38-1,10.65,10.65,0,0,0,3.32-2.72,13.5,13.5,0,0,0,2.11-4.15,19,19,0,0,0,.68-5.2A14.42,14.42,0,0,0,720.84,50a9.34,9.34,0,0,0-7.7-3.47A9.47,9.47,0,0,0,705.37,50,13.66,13.66,0,0,0,702.43,59.09Z"/><path class="cls-2" d="M758.18,40.07a18.57,18.57,0,0,1,7.47,1.44,17.76,17.76,0,0,1,5.89,4.07,18.09,18.09,0,0,1,3.85,6,22.61,22.61,0,0,1,0,15.39,18.39,18.39,0,0,1-3.85,6.11,17.72,17.72,0,0,1-5.89,4,19.23,19.23,0,0,1-14.94,0,17.78,17.78,0,0,1-5.88-4A18.39,18.39,0,0,1,741,67a22.45,22.45,0,0,1,0-15.39,18.09,18.09,0,0,1,3.85-6,17.82,17.82,0,0,1,5.88-4.07A18.64,18.64,0,0,1,758.18,40.07Zm0,32.22a11.71,11.71,0,0,0,4.3-.83A9.84,9.84,0,0,0,766.11,69a12.49,12.49,0,0,0,2.49-4.08,15.81,15.81,0,0,0,.9-5.58,15.81,15.81,0,0,0-.9-5.58,12.11,12.11,0,0,0-2.49-4,9.84,9.84,0,0,0-3.63-2.49,11.55,11.55,0,0,0-8.6,0,9.89,9.89,0,0,0-3.62,2.49,12.11,12.11,0,0,0-2.49,4,15.81,15.81,0,0,0-.9,5.58,15.81,15.81,0,0,0,.9,5.58A12.49,12.49,0,0,0,750.26,69a9.89,9.89,0,0,0,3.62,2.49A11.79,11.79,0,0,0,758.18,72.29Z"/><path class="cls-2" d="M469.44,64.59l6.25,2.16a16.48,16.48,0,0,1-2.24,4.55,14.82,14.82,0,0,1-3.62,3.7A18.47,18.47,0,0,1,465,77.55a18.06,18.06,0,0,1-5.94.92,20,20,0,0,1-7.1-1.31A16.77,16.77,0,0,1,446,73.31a17.77,17.77,0,0,1-4.09-6.25,22.16,22.16,0,0,1-1.54-8.41,20.5,20.5,0,0,1,1.47-8,21,21,0,0,1,3.93-6.17,18.39,18.39,0,0,1,5.63-4,17,17,0,0,1,6.71-1.38,19.94,19.94,0,0,1,7.64,1.38,15.58,15.58,0,0,1,5.55,4,18.67,18.67,0,0,1,3.48,6.09,26.06,26.06,0,0,1,1.15,8v1.31c-.07.38-.07.77-.15,1H447.84a14.56,14.56,0,0,0,.93,4.55,10.3,10.3,0,0,0,2.39,3.55,10.11,10.11,0,0,0,3.55,2.31,11.36,11.36,0,0,0,4.32.85c3,0,5.32-.69,6.94-2.16A12.24,12.24,0,0,0,469.44,64.59ZM448.07,55h20.29a10.07,10.07,0,0,0-2.7-6.79c-1.69-1.78-4.16-2.7-7.48-2.7a9.7,9.7,0,0,0-4.09.77A10,10,0,0,0,451,48.39a12.1,12.1,0,0,0-2.09,3.09A9.55,9.55,0,0,0,448.07,55Z"/><path class="cls-1" d="M704.78,25.46h11.49a7.29,7.29,0,0,1,7.29,7.29v0a0,0,0,0,1,0,0H704.78a0,0,0,0,1,0,0V25.46A0,0,0,0,1,704.78,25.46Z"/><path class="cls-3" d="M661.29,86.16h18.77a0,0,0,0,1,0,0v7.29a0,0,0,0,1,0,0H668.57a7.29,7.29,0,0,1-7.29-7.29v0A0,0,0,0,1,661.29,86.16Z"/></g></g></svg>